<svg width="400" height="400" viewBox="0 0 205 220" class="css-1j8o68f">
  <path xmlns="http://www.w3.org/2000/svg" d="m95.765 202.886-70.224-40.554A11.114 11.114 0 0 1 20 152.726V71.65a11.114 11.114 0 0 1 5.54-9.639L95.766 21.49a11.114 11.114 0 0 1 11.114 0l70.192 40.555a11.114 11.114 0 0 1 5.54 9.639v81.043a11.114 11.114 0 0 1-5.54 9.639l-70.192 40.521a11.114 11.114 0 0 1-11.114 0z" fill="#38c6bd"/>
  <path d="M93.055 171.39c-.938 0-1.87-.286-2.866-.861l-14.32-8.276c-1.99-1.154-2.868-2.673-2.868-4.974V67.262c0-2.3.878-3.818 2.868-4.972l15.04-8.693a4.172 4.172 0 1 1 4.17 7.226l-13.737 7.938v87.015l11.715 6.771 27.603-15.953V119.5l-7.543 4.363v15.959a4.172 4.172 0 0 1-8.344 0V122.36c0-2.299.878-3.818 2.868-4.971l15.08-8.727a4.2 4.2 0 0 1 2.095-.561c2.252 0 4.166 1.848 4.166 4.172l.02 35.824c0 2.299-.879 3.818-2.87 4.955l-30.206 17.477c-.998.573-1.936.862-2.871.862zm.005-18.215a4.172 4.172 0 0 1-4.172-4.173V75.538a4.172 4.172 0 0 1 8.344 0v73.464a4.172 4.172 0 0 1-4.172 4.173z" fill="#fff"/>
</svg>
