<svg width="403" height="204.375" viewBox="0 0 403 204.375" class="css-1j8o68f">
  <path xmlns="http://www.w3.org/2000/svg" d="m95.765 202.886-70.224-40.554A11.114 11.114 0 0 1 20 152.726V71.65a11.114 11.114 0 0 1 5.54-9.639L95.766 21.49a11.114 11.114 0 0 1 11.114 0l70.192 40.555a11.114 11.114 0 0 1 5.54 9.639v81.043a11.114 11.114 0 0 1-5.54 9.639l-70.192 40.521a11.114 11.114 0 0 1-11.114 0z" fill="#38c6bd"/>
  <path d="M93.055 171.39c-.938 0-1.87-.286-2.866-.861l-14.32-8.276c-1.99-1.154-2.868-2.673-2.868-4.974V67.262c0-2.3.878-3.818 2.868-4.972l15.04-8.693a4.172 4.172 0 1 1 4.17 7.226l-13.737 7.938v87.015l11.715 6.771 27.603-15.953V119.5l-7.543 4.363v15.959a4.172 4.172 0 0 1-8.344 0V122.36c0-2.299.878-3.818 2.868-4.971l15.08-8.727a4.2 4.2 0 0 1 2.095-.561c2.252 0 4.166 1.848 4.166 4.172l.02 35.824c0 2.299-.879 3.818-2.87 4.955l-30.206 17.477c-.998.573-1.936.862-2.871.862zm.005-18.215a4.172 4.172 0 0 1-4.172-4.173V75.538a4.172 4.172 0 0 1 8.344 0v73.464a4.172 4.172 0 0 1-4.172 4.173z" fill="#fff"/>
  <path d="M203 127.362V73.671h6.711v46.98h8.725v6.711H203zm22.818 0V73.671h15.437v5.369h-8.725v17.45h7.382v5.369h-7.382v18.792h8.725v6.711h-15.437zm23.49 0V99.174c0-18.725 0-26.107 10.067-26.107s10.068 7.382 10.068 26.107v28.188h-6.712v-15.436h-6.711v15.436h-6.712zm6.712-20.805h6.711v-7.383c0-17.45 0-20.738-3.356-20.738s-3.355 3.288-3.355 20.738v7.383zm23.49 20.805V73.671h10.872c6.913 0 9.262 4.228 9.262 12.349 0 7.315-.873 11.476-2.953 13.49v.402c1.745.604 2.282 3.759 2.953 11.611l1.342 15.839h-6.711l-.873-15.839c-.47-7.986-1.678-9.664-3.691-9.664h-3.49v25.503h-6.711zm6.711-30.872h4.161c2.35 0 3.02-2.35 3.02-10.47 0-5.302-1.006-6.98-3.02-6.98h-4.16v17.45zm23.49 30.872V73.671h6.04l8.792 32.886-.067-.671V73.67h6.711v53.691h-6.04l-8.792-29.53.067.671v28.859h-6.711zm31.544 0V73.671h6.71v53.691h-6.71zm15.436-16.376h6.778c.135 8.658.806 10.336 3.222 10.336 3.288 0 3.288-2.752 3.288-10.067 0-10.739-13.288-7.853-13.288-22.148 0-8.39 0-16.107 10.067-16.107 7.45 0 9.463 4.228 9.933 14.362h-6.712c-.268-7.315-1.073-8.993-3.221-8.993-3.289 0-3.289 3.624-3.289 10.738 0 10.403 13.356 6.711 13.356 22.148 0 9.396 0 16.778-10.134 16.778-7.785 0-9.598-4.63-10-17.047zm26.174-31.275v-6.04H403v6.04h-6.711v47.651h-6.711v-47.65h-6.712zm-171.49 72.011h-1.27l-.96-3.897h-3.952l-.96 3.897H203l3.68-13.595h1.033zm-2.538-5.112-1.613-6.725-1.722 6.725h3.335zm12.526.4c-.012.676-.036 1.31-.072 1.903s-.16 1.108-.372 1.55-.547.788-1.006 1.042-1.111.38-1.958.38c-.592 0-1.093-.087-1.504-.262s-.744-.424-.997-.744-.438-.706-.553-1.16-.173-.958-.173-1.513v-6.526c0-.592.061-1.118.182-1.577s.317-.846.589-1.16.625-.55 1.06-.707.967-.236 1.596-.236c.76 0 1.354.13 1.776.39s.74.607.952 1.042.341.934.39 1.496.078 1.144.09 1.749h-1.196c0-.399-.003-.81-.01-1.233s-.066-.807-.18-1.15-.314-.629-.599-.853-.703-.335-1.26-.335c-.422 0-.776.06-1.06.181s-.508.296-.67.526-.278.5-.345.815-.1.665-.1 1.052l.036 6.616c0 .363.027.692.082.988s.154.55.299.762.348.374.607.49.59.171.988.171c.616 0 1.076-.106 1.378-.317s.514-.492.634-.843.185-.746.19-1.187.01-.891.01-1.35h1.196zm11.167 4.712h-6.797v-13.595h6.67v1.378h-5.42v4.676h5.384v1.179h-5.384v4.985h5.547v1.377zm18.038-13.595-3.208 7.396v6.2h-1.306v-6.2l-3.208-7.396h1.45l2.393 5.837 2.429-5.837h1.45zm10.478 10.079c0 1.28-.287 2.214-.861 2.8s-1.508.88-2.801.88c-1.184 0-2.051-.327-2.601-.98s-.825-1.552-.825-2.7v-6.526c0-1.245.294-2.17.88-2.774s1.507-.906 2.764-.906c1.196 0 2.07.317 2.619.952s.825 1.531.825 2.692v6.562zm-1.27-.037v-6.544c0-.688-.18-1.262-.543-1.722s-.912-.689-1.65-.689c-.881 0-1.495.23-1.84.69s-.516 1.105-.516 1.939v6.254c0 .35.04.68.118.988s.205.577.38.807.4.41.671.543.602.2.988.2c.847 0 1.457-.206 1.83-.617s.563-1.026.563-1.849zm13.017.037c0 1.208-.293 2.123-.879 2.746s-1.49.934-2.71.934c-1.16 0-2.033-.333-2.62-.997s-.879-1.56-.879-2.683v-10.08h1.287v10.025c0 .338.046.656.136.952s.227.556.408.78.408.398.68.525.59.19.952.19c.882 0 1.495-.244 1.84-.734s.516-1.144.516-1.966v-9.771h1.27v10.079zm12.708 3.516h-1.56l-2.845-5.492h-2.357v5.492h-1.215v-13.595h3.118c1.246 0 2.23.356 2.955 1.07s1.088 1.692 1.088 2.936c0 .387-.051.78-.154 1.178s-.25.773-.444 1.124-.432.668-.716.952-.608.505-.97.662zm-2.103-9.68c0-.423-.073-.804-.218-1.142s-.344-.625-.598-.86-.556-.418-.906-.545-.73-.19-1.142-.19h-1.795v5.674h1.903c.967 0 1.668-.26 2.103-.78s.653-1.238.653-2.157zm19.306 6.164c0 1.112-.29 2.003-.87 2.673s-1.444 1.007-2.592 1.007c-.676 0-1.247-.097-1.713-.29s-.843-.472-1.133-.834-.499-.798-.625-1.306-.184-1.075-.173-1.704l.019-.47h1.395c0 .386.013.781.037 1.187s.103.773.235 1.105.34.605.617.816.677.317 1.196.317c.798 0 1.384-.21 1.758-.634s.562-1.015.562-1.777c0-.604-.145-1.081-.435-1.432s-.652-.646-1.087-.888-.903-.46-1.405-.653-.97-.435-1.405-.725-.798-.661-1.088-1.115-.435-1.054-.435-1.803c0-1.208.312-2.124.934-2.746s1.538-.934 2.746-.934c.568 0 1.06.09 1.477.272s.765.435 1.043.761.484.714.616 1.16.2.943.2 1.487v1.142h-1.324c0-.399-.003-.813-.009-1.242s-.069-.822-.19-1.178-.323-.65-.608-.88-.697-.344-1.241-.344c-.785 0-1.378.2-1.777.598s-.585.986-.562 1.759v.181c.013.374.076.686.19.934s.273.46.472.634.432.33.698.462.556.272.87.417c.46.206.906.424 1.341.653s.82.498 1.151.807.602.67.807 1.087.308.916.308 1.496zm10.261-8.756h-2.81v12.272h-1.34V139.45h-2.81v-1.323h6.96v1.323zm11.312 8.756c0 1.208-.293 2.123-.88 2.746s-1.489.934-2.71.934c-1.16 0-2.032-.333-2.619-.997s-.879-1.56-.879-2.683v-10.08h1.287v10.025c0 .338.045.656.136.952s.227.556.408.78.408.398.68.525.589.19.951.19c.883 0 1.496-.244 1.84-.734s.517-1.144.517-1.966v-9.771h1.269v10.079zm11.004-3.571c0 .446.003.933.01 1.459s-.016 1.051-.064 1.577-.136 1.033-.263 1.523-.324.921-.59 1.296-.613.673-1.042.897-.963.335-1.604.335h-3.3v-13.595h3.173c.665 0 1.215.093 1.65.28s.791.442 1.07.762.482.695.616 1.124.224.886.272 1.369.072.979.072 1.486v1.487zm-1.233.126v-.779a24.483 24.483 0 0 0-.1-2.085 3.887 3.887 0 0 0-.117-.725c-.206-.604-.49-1.051-.852-1.341s-.87-.435-1.523-.435h-1.813v11.021h2.049c.265 0 .507-.048.725-.145s.417-.226.598-.39.336-.35.462-.561.233-.433.318-.662c.06-.157.106-.414.136-.77s.054-.735.072-1.134.03-.782.036-1.15.01-.65.01-.844zm6.961 6.961h-1.36v-13.595h1.36v13.595zm11.403 0h-6.797v-13.595h6.67v1.378h-5.42v4.676h5.384v1.179h-5.384v4.985h5.547v1.377zM363 148.206c0 1.112-.29 2.003-.87 2.673s-1.444 1.007-2.593 1.007c-.676 0-1.247-.097-1.713-.29s-.843-.472-1.133-.834-.498-.798-.625-1.306-.184-1.075-.172-1.704l.018-.47h1.396c0 .386.012.781.036 1.187s.103.773.236 1.105.339.605.616.816.677.317 1.196.317c.798 0 1.384-.21 1.759-.634s.562-1.015.562-1.777c0-.604-.145-1.081-.435-1.432s-.653-.646-1.088-.888-.903-.46-1.405-.653-.97-.435-1.405-.725-.797-.661-1.087-1.115-.435-1.054-.435-1.803c0-1.208.311-2.124.933-2.746s1.538-.934 2.746-.934c.569 0 1.06.09 1.478.272s.765.435 1.042.761.484.714.616 1.16.2.943.2 1.487v1.142h-1.323c0-.399-.003-.813-.01-1.242s-.068-.822-.19-1.178-.322-.65-.607-.88-.698-.344-1.242-.344c-.785 0-1.377.2-1.776.598s-.586.986-.562 1.759v.181c.012.374.076.686.19.934s.272.46.471.634.433.33.698.462.557.272.87.417c.46.206.907.424 1.342.653s.82.498 1.15.807.603.67.808 1.087.308.916.308 1.496z" fill="#111"/>
</svg>
